<svg width="300" height="268" viewBox="0 0 300 268" fill="none" xmlns="http://www.w3.org/2000/svg">
<g clip-path="url(#clip0_627_674)">
<path d="M40 21C40 9.9543 48.9543 1 60 1H98.8843C107.59 1 115.245 6.70425 118.254 14.8733C145.115 87.8102 185.186 110.437 230.874 101.686C245.054 98.9698 260 108.544 260 122.983V248C260 259.046 251.046 268 240 268H60C48.9543 268 40 259.046 40 248V21Z" fill="url(#paint0_linear_627_674)"/>
<path d="M56.2642 192.455H60.0568L64.0625 202.227H64.233L68.2386 192.455H72.0312V207H69.0483V197.533H68.9276L65.1634 206.929H63.1321L59.3679 197.497H59.2472V207H56.2642V192.455ZM79.4371 207.213C78.3339 207.213 77.3799 206.979 76.5749 206.51C75.7747 206.036 75.1568 205.378 74.7212 204.536C74.2856 203.688 74.0678 202.705 74.0678 201.588C74.0678 200.461 74.2856 199.476 74.7212 198.634C75.1568 197.786 75.7747 197.128 76.5749 196.659C77.3799 196.186 78.3339 195.949 79.4371 195.949C80.5404 195.949 81.4921 196.186 82.2923 196.659C83.0972 197.128 83.7174 197.786 84.1531 198.634C84.5887 199.476 84.8065 200.461 84.8065 201.588C84.8065 202.705 84.5887 203.688 84.1531 204.536C83.7174 205.378 83.0972 206.036 82.2923 206.51C81.4921 206.979 80.5404 207.213 79.4371 207.213ZM79.4513 204.869C79.9532 204.869 80.3723 204.727 80.7085 204.443C81.0446 204.154 81.2979 203.761 81.4684 203.264C81.6436 202.767 81.7312 202.201 81.7312 201.567C81.7312 200.932 81.6436 200.366 81.4684 199.869C81.2979 199.372 81.0446 198.979 80.7085 198.69C80.3723 198.402 79.9532 198.257 79.4513 198.257C78.9447 198.257 78.5186 198.402 78.1729 198.69C77.832 198.979 77.574 199.372 77.3988 199.869C77.2283 200.366 77.1431 200.932 77.1431 201.567C77.1431 202.201 77.2283 202.767 77.3988 203.264C77.574 203.761 77.832 204.154 78.1729 204.443C78.5186 204.727 78.9447 204.869 79.4513 204.869ZM86.8306 207V192.455H89.8562V197.923H89.9485C90.0811 197.63 90.2728 197.331 90.5238 197.028C90.7795 196.721 91.1109 196.465 91.5181 196.261C91.93 196.053 92.4414 195.949 93.0522 195.949C93.8477 195.949 94.5816 196.157 95.2539 196.574C95.9263 196.986 96.4637 197.608 96.8661 198.442C97.2686 199.27 97.4698 200.31 97.4698 201.56C97.4698 202.777 97.2733 203.804 96.8803 204.642C96.4921 205.475 95.9618 206.107 95.2894 206.538C94.6218 206.964 93.8737 207.178 93.0451 207.178C92.458 207.178 91.9585 207.08 91.5465 206.886C91.1393 206.692 90.8055 206.448 90.5451 206.155C90.2847 205.857 90.0858 205.556 89.9485 205.253H89.8136V207H86.8306ZM89.7923 201.545C89.7923 202.194 89.8822 202.76 90.0621 203.243C90.2421 203.726 90.5025 204.102 90.8434 204.372C91.1843 204.637 91.5986 204.77 92.0863 204.77C92.5787 204.77 92.9954 204.635 93.3363 204.365C93.6772 204.09 93.9353 203.712 94.1104 203.229C94.2904 202.741 94.3803 202.18 94.3803 201.545C94.3803 200.916 94.2927 200.362 94.1175 199.884C93.9424 199.405 93.6843 199.031 93.3434 198.761C93.0025 198.491 92.5835 198.357 92.0863 198.357C91.5939 198.357 91.1772 198.487 90.8363 198.747C90.5001 199.008 90.2421 199.377 90.0621 199.855C89.8822 200.333 89.7923 200.897 89.7923 201.545ZM99.4886 207V196.091H102.514V207H99.4886ZM101.009 194.685C100.559 194.685 100.173 194.536 99.8509 194.237C99.5336 193.934 99.375 193.572 99.375 193.151C99.375 192.734 99.5336 192.376 99.8509 192.078C100.173 191.775 100.559 191.624 101.009 191.624C101.458 191.624 101.842 191.775 102.159 192.078C102.481 192.376 102.642 192.734 102.642 193.151C102.642 193.572 102.481 193.934 102.159 194.237C101.842 194.536 101.458 194.685 101.009 194.685ZM107.963 192.455V207H104.938V192.455H107.963ZM115.359 207.213C114.237 207.213 113.271 206.986 112.461 206.531C111.656 206.072 111.036 205.423 110.6 204.585C110.165 203.742 109.947 202.746 109.947 201.595C109.947 200.473 110.165 199.488 110.6 198.641C111.036 197.793 111.649 197.133 112.44 196.659C113.235 196.186 114.168 195.949 115.238 195.949C115.958 195.949 116.628 196.065 117.248 196.297C117.873 196.524 118.417 196.867 118.881 197.327C119.35 197.786 119.715 198.364 119.975 199.06C120.236 199.751 120.366 200.561 120.366 201.489V202.32H111.154V200.445H117.518C117.518 200.009 117.423 199.623 117.234 199.287C117.044 198.951 116.781 198.688 116.445 198.499C116.114 198.304 115.728 198.207 115.288 198.207C114.828 198.207 114.421 198.314 114.066 198.527C113.716 198.735 113.441 199.017 113.242 199.372C113.043 199.723 112.942 200.113 112.937 200.544V202.327C112.937 202.866 113.036 203.333 113.235 203.726C113.439 204.119 113.725 204.422 114.094 204.635C114.464 204.848 114.902 204.955 115.408 204.955C115.745 204.955 116.052 204.907 116.332 204.812C116.611 204.718 116.85 204.576 117.049 204.386C117.248 204.197 117.399 203.965 117.504 203.69L120.302 203.875C120.16 204.547 119.869 205.134 119.428 205.636C118.993 206.134 118.429 206.522 117.738 206.801C117.051 207.076 116.258 207.213 115.359 207.213ZM58.7713 231H55.4759L60.4972 216.455H64.4602L69.4744 231H66.179L62.5355 219.778H62.4219L58.7713 231ZM58.5653 225.283H66.3494V227.683H58.5653V225.283ZM71.1683 235.091V220.091H74.1513V221.923H74.2862C74.4188 221.63 74.6106 221.331 74.8615 221.028C75.1172 220.721 75.4486 220.465 75.8558 220.261C76.2678 220.053 76.7791 219.949 77.3899 219.949C78.1854 219.949 78.9193 220.157 79.5916 220.574C80.264 220.986 80.8014 221.608 81.2038 222.442C81.6063 223.27 81.8075 224.31 81.8075 225.56C81.8075 226.777 81.611 227.804 81.218 228.642C80.8298 229.475 80.2995 230.107 79.6271 230.538C78.9595 230.964 78.2114 231.178 77.3828 231.178C76.7957 231.178 76.2962 231.08 75.8842 230.886C75.477 230.692 75.1432 230.448 74.8828 230.155C74.6224 229.857 74.4235 229.556 74.2862 229.253H74.1939V235.091H71.1683ZM74.13 225.545C74.13 226.194 74.2199 226.76 74.3999 227.243C74.5798 227.726 74.8402 228.102 75.1811 228.372C75.522 228.637 75.9363 228.77 76.424 228.77C76.9164 228.77 77.3331 228.635 77.674 228.365C78.0149 228.09 78.273 227.712 78.4482 227.229C78.6281 226.741 78.718 226.18 78.718 225.545C78.718 224.916 78.6304 224.362 78.4553 223.884C78.2801 223.405 78.022 223.031 77.6811 222.761C77.3402 222.491 76.9212 222.357 76.424 222.357C75.9316 222.357 75.5149 222.487 75.174 222.747C74.8378 223.008 74.5798 223.377 74.3999 223.855C74.2199 224.333 74.13 224.897 74.13 225.545ZM83.8246 235.091V220.091H86.8075V221.923H86.9425C87.075 221.63 87.2668 221.331 87.5178 221.028C87.7734 220.721 88.1049 220.465 88.5121 220.261C88.924 220.053 89.4354 219.949 90.0462 219.949C90.8416 219.949 91.5755 220.157 92.2479 220.574C92.9202 220.986 93.4576 221.608 93.8601 222.442C94.2625 223.27 94.4638 224.31 94.4638 225.56C94.4638 226.777 94.2673 227.804 93.8743 228.642C93.486 229.475 92.9557 230.107 92.2834 230.538C91.6158 230.964 90.8677 231.178 90.0391 231.178C89.4519 231.178 88.9524 231.08 88.5405 230.886C88.1333 230.692 87.7995 230.448 87.5391 230.155C87.2786 229.857 87.0798 229.556 86.9425 229.253H86.8501V235.091H83.8246ZM86.7862 225.545C86.7862 226.194 86.8762 226.76 87.0561 227.243C87.236 227.726 87.4964 228.102 87.8374 228.372C88.1783 228.637 88.5926 228.77 89.0803 228.77C89.5727 228.77 89.9893 228.635 90.3303 228.365C90.6712 228.09 90.9292 227.712 91.1044 227.229C91.2843 226.741 91.3743 226.18 91.3743 225.545C91.3743 224.916 91.2867 224.362 91.1115 223.884C90.9363 223.405 90.6783 223.031 90.3374 222.761C89.9964 222.491 89.5774 222.357 89.0803 222.357C88.5878 222.357 88.1712 222.487 87.8303 222.747C87.4941 223.008 87.236 223.377 87.0561 223.855C86.8762 224.333 86.7862 224.897 86.7862 225.545ZM99.5064 216.455V231H96.4808V216.455H99.5064ZM101.93 231V220.091H104.956V231H101.93ZM103.45 218.685C103 218.685 102.614 218.536 102.292 218.237C101.975 217.934 101.816 217.572 101.816 217.151C101.816 216.734 101.975 216.376 102.292 216.078C102.614 215.775 103 215.624 103.45 215.624C103.9 215.624 104.283 215.775 104.6 216.078C104.922 216.376 105.083 216.734 105.083 217.151C105.083 217.572 104.922 217.934 104.6 218.237C104.283 218.536 103.9 218.685 103.45 218.685ZM112.308 231.213C111.191 231.213 110.23 230.976 109.425 230.503C108.625 230.025 108.009 229.362 107.578 228.514C107.152 227.667 106.939 226.691 106.939 225.588C106.939 224.471 107.154 223.491 107.585 222.648C108.021 221.8 108.639 221.14 109.439 220.666C110.239 220.188 111.191 219.949 112.294 219.949C113.246 219.949 114.079 220.122 114.794 220.467C115.509 220.813 116.075 221.298 116.491 221.923C116.908 222.548 117.138 223.282 117.18 224.125H114.325C114.245 223.58 114.032 223.143 113.686 222.811C113.345 222.475 112.898 222.307 112.344 222.307C111.875 222.307 111.465 222.435 111.115 222.69C110.769 222.941 110.5 223.308 110.305 223.791C110.111 224.274 110.014 224.859 110.014 225.545C110.014 226.241 110.109 226.833 110.298 227.321C110.492 227.809 110.765 228.18 111.115 228.436C111.465 228.692 111.875 228.82 112.344 228.82C112.689 228.82 113 228.749 113.274 228.607C113.554 228.464 113.783 228.259 113.963 227.989C114.148 227.714 114.268 227.385 114.325 227.001H117.18C117.133 227.835 116.906 228.569 116.499 229.203C116.096 229.833 115.54 230.325 114.83 230.68C114.119 231.036 113.279 231.213 112.308 231.213ZM122.228 231.206C121.532 231.206 120.912 231.085 120.368 230.844C119.823 230.598 119.392 230.235 119.075 229.757C118.762 229.274 118.606 228.673 118.606 227.953C118.606 227.347 118.717 226.838 118.94 226.426C119.163 226.014 119.466 225.683 119.849 225.432C120.233 225.181 120.668 224.991 121.156 224.864C121.648 224.736 122.164 224.646 122.704 224.594C123.339 224.527 123.85 224.466 124.238 224.409C124.627 224.348 124.908 224.258 125.083 224.139C125.259 224.021 125.346 223.846 125.346 223.614V223.571C125.346 223.121 125.204 222.773 124.92 222.527C124.641 222.281 124.243 222.158 123.727 222.158C123.182 222.158 122.749 222.278 122.427 222.52C122.105 222.757 121.892 223.055 121.788 223.415L118.99 223.188C119.132 222.525 119.411 221.952 119.828 221.469C120.244 220.981 120.782 220.607 121.44 220.347C122.103 220.081 122.87 219.949 123.741 219.949C124.347 219.949 124.927 220.02 125.481 220.162C126.04 220.304 126.535 220.524 126.966 220.822C127.401 221.121 127.744 221.504 127.995 221.973C128.246 222.437 128.372 222.993 128.372 223.642V231H125.502V229.487H125.417C125.242 229.828 125.008 230.129 124.714 230.389C124.421 230.645 124.068 230.846 123.656 230.993C123.244 231.135 122.768 231.206 122.228 231.206ZM123.095 229.118C123.54 229.118 123.933 229.03 124.274 228.855C124.615 228.675 124.882 228.434 125.076 228.131C125.27 227.828 125.368 227.484 125.368 227.101V225.943C125.273 226.005 125.143 226.062 124.977 226.114C124.816 226.161 124.634 226.206 124.43 226.249C124.226 226.286 124.023 226.322 123.819 226.355C123.616 226.384 123.431 226.41 123.265 226.433C122.91 226.485 122.6 226.568 122.335 226.682C122.07 226.795 121.864 226.949 121.717 227.143C121.57 227.333 121.497 227.57 121.497 227.854C121.497 228.266 121.646 228.58 121.944 228.798C122.247 229.011 122.631 229.118 123.095 229.118ZM136.522 220.091V222.364H129.952V220.091H136.522ZM131.444 217.477H134.469V227.648C134.469 227.927 134.512 228.145 134.597 228.301C134.682 228.453 134.801 228.559 134.952 228.621C135.108 228.682 135.288 228.713 135.492 228.713C135.634 228.713 135.776 228.701 135.918 228.678C136.06 228.649 136.169 228.628 136.245 228.614L136.721 230.865C136.569 230.912 136.356 230.967 136.081 231.028C135.807 231.095 135.473 231.135 135.08 231.149C134.351 231.178 133.712 231.08 133.162 230.858C132.618 230.635 132.194 230.29 131.891 229.821C131.588 229.352 131.439 228.76 131.444 228.045V217.477ZM138.493 231V220.091H141.518V231H138.493ZM140.012 218.685C139.563 218.685 139.177 218.536 138.855 218.237C138.538 217.934 138.379 217.572 138.379 217.151C138.379 216.734 138.538 216.376 138.855 216.078C139.177 215.775 139.563 215.624 140.012 215.624C140.462 215.624 140.846 215.775 141.163 216.078C141.485 216.376 141.646 216.734 141.646 217.151C141.646 217.572 141.485 217.934 141.163 218.237C140.846 218.536 140.462 218.685 140.012 218.685ZM148.871 231.213C147.768 231.213 146.813 230.979 146.009 230.51C145.208 230.036 144.59 229.378 144.155 228.536C143.719 227.688 143.501 226.705 143.501 225.588C143.501 224.461 143.719 223.476 144.155 222.634C144.59 221.786 145.208 221.128 146.009 220.659C146.813 220.186 147.768 219.949 148.871 219.949C149.974 219.949 150.926 220.186 151.726 220.659C152.531 221.128 153.151 221.786 153.587 222.634C154.022 223.476 154.24 224.461 154.24 225.588C154.24 226.705 154.022 227.688 153.587 228.536C153.151 229.378 152.531 230.036 151.726 230.51C150.926 230.979 149.974 231.213 148.871 231.213ZM148.885 228.869C149.387 228.869 149.806 228.727 150.142 228.443C150.478 228.154 150.732 227.761 150.902 227.264C151.077 226.767 151.165 226.201 151.165 225.567C151.165 224.932 151.077 224.366 150.902 223.869C150.732 223.372 150.478 222.979 150.142 222.69C149.806 222.402 149.387 222.257 148.885 222.257C148.378 222.257 147.952 222.402 147.607 222.69C147.266 222.979 147.008 223.372 146.832 223.869C146.662 224.366 146.577 224.932 146.577 225.567C146.577 226.201 146.662 226.767 146.832 227.264C147.008 227.761 147.266 228.154 147.607 228.443C147.952 228.727 148.378 228.869 148.885 228.869ZM159.233 224.693V231H156.207V220.091H159.091V222.016H159.219C159.46 221.381 159.865 220.879 160.433 220.51C161.001 220.136 161.69 219.949 162.5 219.949C163.258 219.949 163.918 220.115 164.482 220.446C165.045 220.777 165.483 221.251 165.795 221.866C166.108 222.477 166.264 223.206 166.264 224.054V231H163.239V224.594C163.243 223.926 163.073 223.405 162.727 223.031C162.382 222.652 161.906 222.463 161.3 222.463C160.893 222.463 160.533 222.551 160.22 222.726C159.912 222.901 159.671 223.157 159.496 223.493C159.325 223.824 159.238 224.224 159.233 224.693Z" fill="white"/>
<g filter="url(#filter0_d_627_674)">
<path d="M243.037 50.7465L173.324 126.167C169.918 129.319 167.356 129.909 162.263 129.667C162.073 129.658 161.883 129.629 161.699 129.583L117.182 118.373C116.982 118.323 116.786 118.253 116.604 118.155C113.66 116.566 113.03 113.955 114.696 111.286C114.779 111.153 114.877 111.029 114.983 110.914L185.149 34.039C188.279 31.0737 190.224 30.476 194.031 31.3114L240.699 42.918C241.155 43.0315 241.58 43.2503 241.921 43.5742C244.062 45.608 244.52 47.0833 243.651 49.7273C243.526 50.1083 243.309 50.4521 243.037 50.7465Z" stroke="black" stroke-width="2" shape-rendering="crispEdges"/>
</g>
<g filter="url(#filter1_d_627_674)">
<path d="M242.075 50.7697L173.444 123.283C170.089 126.322 167.58 126.902 162.59 126.706C162.42 126.7 162.248 126.677 162.082 126.64L117.002 116.65C116.786 116.602 116.574 116.533 116.381 116.426C113.575 114.869 114.599 111.947 116.394 109.329L185.419 33.6721L185.549 33.5512C188.504 30.811 188.747 30.5855 192.407 31.3433L239.862 43.2943C240.303 43.4053 240.715 43.6147 241.048 43.9238C243.118 45.8425 243.556 47.2448 242.699 49.7615C242.57 50.1398 242.349 50.4796 242.075 50.7697Z" fill="url(#paint1_linear_627_674)"/>
</g>
<path d="M222.517 40.8061L207.027 36.8482L204.611 37.9971L223.462 42.823L222.517 40.8061Z" fill="url(#paint2_linear_627_674)" fill-opacity="0.9"/>
<path d="M171.54 106.817L129.041 97.4829L117.54 109.931L156.54 120.307C157.542 120.525 158.098 120.494 159.04 119.788L172.04 108.892C172.234 108.105 172.098 107.649 171.54 106.817Z" fill="url(#paint3_linear_627_674)"/>
<path d="M206.673 67.3286L164.174 57.9946L152.673 70.4425L191.673 80.819C192.675 81.0365 193.231 81.0055 194.173 80.3002L207.173 69.4041C207.367 68.6169 207.231 68.1608 206.673 67.3286Z" fill="url(#paint4_linear_627_674)"/>
<line x1="0.5" y1="-0.5" x2="16.5363" y2="-0.5" transform="matrix(0.969719 0.244221 -0.227726 0.973725 130.431 100.473)" stroke="#5A5A5A" stroke-linecap="round"/>
<line x1="0.5" y1="-0.5" x2="16.5363" y2="-0.5" transform="matrix(0.969719 0.244221 -0.227726 0.973725 164.564 85.8896)" stroke="#5A5A5A" stroke-linecap="round"/>
<line x1="0.5" y1="-0.5" x2="16.5363" y2="-0.5" transform="matrix(0.969719 0.244221 -0.227726 0.973725 164.564 60.9844)" stroke="#5A5A5A" stroke-linecap="round"/>
<line x1="0.5" y1="-0.5" x2="37.5811" y2="-0.5" transform="matrix(0.969719 0.244221 -0.227726 0.973725 126.541 103.189)" stroke="white" stroke-linecap="round"/>
<line x1="0.5" y1="-0.5" x2="37.5811" y2="-0.5" transform="matrix(0.969719 0.244221 -0.227726 0.973725 160.674 88.6074)" stroke="white" stroke-linecap="round"/>
<line x1="0.5" y1="-0.5" x2="37.5811" y2="-0.5" transform="matrix(0.969719 0.244221 -0.227726 0.973725 160.674 63.7021)" stroke="white" stroke-linecap="round"/>
<line x1="0.5" y1="-0.5" x2="37.5811" y2="-0.5" transform="matrix(0.969719 0.244221 -0.227726 0.973725 123.651 105.908)" stroke="white" stroke-linecap="round"/>
<line x1="0.5" y1="-0.5" x2="37.5811" y2="-0.5" transform="matrix(0.969719 0.244221 -0.227726 0.973725 157.784 91.3252)" stroke="white" stroke-linecap="round"/>
<line x1="0.5" y1="-0.5" x2="37.5811" y2="-0.5" transform="matrix(0.969719 0.244221 -0.227726 0.973725 157.784 66.4199)" stroke="white" stroke-linecap="round"/>
<line x1="0.5" y1="-0.5" x2="37.5811" y2="-0.5" transform="matrix(0.969719 0.244221 -0.227726 0.973725 121.541 108.379)" stroke="white" stroke-linecap="round"/>
<line x1="0.5" y1="-0.5" x2="37.5811" y2="-0.5" transform="matrix(0.969719 0.244221 -0.227726 0.973725 155.674 93.7959)" stroke="white" stroke-linecap="round"/>
<line x1="0.5" y1="-0.5" x2="37.5811" y2="-0.5" transform="matrix(0.969719 0.244221 -0.227726 0.973725 155.674 68.8906)" stroke="white" stroke-linecap="round"/>
<g filter="url(#filter2_d_627_674)">
<path d="M179.479 47.1033L176.623 51.3244C176.228 51.9084 176.533 52.702 177.213 52.858L218.975 62.4365C219.327 62.5173 219.698 62.3994 219.943 62.1284L223.601 58.0848C224.115 57.5159 223.838 56.6082 223.099 56.4386L180.536 46.6827C180.133 46.5905 179.713 46.7578 179.479 47.1033Z" fill="url(#paint5_linear_627_674)" fill-opacity="0.9" shape-rendering="crispEdges"/>
</g>
</g>
<defs>
<filter id="filter0_d_627_674" x="112.795" y="29.9609" width="132.265" height="102.76" filterUnits="userSpaceOnUse" color-interpolation-filters="sRGB">
<feFlood flood-opacity="0" result="BackgroundImageFix"/>
<feColorMatrix in="SourceAlpha" type="matrix" values="0 0 0 0 0 0 0 0 0 0 0 0 0 0 0 0 0 0 127 0" result="hardAlpha"/>
<feOffset dy="2"/>
<feComposite in2="hardAlpha" operator="out"/>
<feColorMatrix type="matrix" values="0 0 0 0 0 0 0 0 0 0 0 0 0 0 0 0 0 0 1 0"/>
<feBlend mode="normal" in2="BackgroundImageFix" result="effect1_dropShadow_627_674"/>
<feBlend mode="normal" in="SourceGraphic" in2="effect1_dropShadow_627_674" result="shape"/>
</filter>
<filter id="filter1_d_627_674" x="114.641" y="30.9678" width="128.472" height="97.7725" filterUnits="userSpaceOnUse" color-interpolation-filters="sRGB">
<feFlood flood-opacity="0" result="BackgroundImageFix"/>
<feColorMatrix in="SourceAlpha" type="matrix" values="0 0 0 0 0 0 0 0 0 0 0 0 0 0 0 0 0 0 127 0" result="hardAlpha"/>
<feOffset dy="2"/>
<feComposite in2="hardAlpha" operator="out"/>
<feColorMatrix type="matrix" values="0 0 0 0 0 0 0 0 0 0 0 0 0 0 0 0 0 0 1 0"/>
<feBlend mode="normal" in2="BackgroundImageFix" result="effect1_dropShadow_627_674"/>
<feBlend mode="normal" in="SourceGraphic" in2="effect1_dropShadow_627_674" result="shape"/>
</filter>
<filter id="filter2_d_627_674" x="176.448" y="45.6572" width="47.4165" height="16.8047" filterUnits="userSpaceOnUse" color-interpolation-filters="sRGB">
<feFlood flood-opacity="0" result="BackgroundImageFix"/>
<feColorMatrix in="SourceAlpha" type="matrix" values="0 0 0 0 0 0 0 0 0 0 0 0 0 0 0 0 0 0 127 0" result="hardAlpha"/>
<feOffset dy="-1"/>
<feComposite in2="hardAlpha" operator="out"/>
<feColorMatrix type="matrix" values="0 0 0 0 1 0 0 0 0 1 0 0 0 0 1 0 0 0 0.8 0"/>
<feBlend mode="normal" in2="BackgroundImageFix" result="effect1_dropShadow_627_674"/>
<feBlend mode="normal" in="SourceGraphic" in2="effect1_dropShadow_627_674" result="shape"/>
</filter>
<linearGradient id="paint0_linear_627_674" x1="253.5" y1="268" x2="40" y2="268" gradientUnits="userSpaceOnUse">
<stop offset="0.09375" stop-color="#4535FF"/>
<stop offset="0.814777" stop-color="#9685FF"/>
</linearGradient>
<linearGradient id="paint1_linear_627_674" x1="253.845" y1="100.037" x2="121.393" y2="137.812" gradientUnits="userSpaceOnUse">
<stop offset="0.09375" stop-color="#4535FF"/>
<stop offset="0.814777" stop-color="#9685FF"/>
</linearGradient>
<linearGradient id="paint2_linear_627_674" x1="206.078" y1="37.1822" x2="212.643" y2="56.2419" gradientUnits="userSpaceOnUse">
<stop stop-color="white"/>
<stop offset="0.880208" stop-color="#E8F4FE"/>
</linearGradient>
<linearGradient id="paint3_linear_627_674" x1="129.041" y1="98.0021" x2="164.548" y2="115.11" gradientUnits="userSpaceOnUse">
<stop offset="0.0520833" stop-color="#82BCFF"/>
<stop offset="0.973958" stop-color="#C7E1FF" stop-opacity="0.84"/>
</linearGradient>
<linearGradient id="paint4_linear_627_674" x1="164.174" y1="58.5138" x2="199.681" y2="75.6219" gradientUnits="userSpaceOnUse">
<stop offset="0.0520833" stop-color="#82BCFF"/>
<stop offset="0.973958" stop-color="#C7E1FF" stop-opacity="0.84"/>
</linearGradient>
<linearGradient id="paint5_linear_627_674" x1="180.126" y1="48.0628" x2="221.072" y2="59.8559" gradientUnits="userSpaceOnUse">
<stop offset="0.078125" stop-color="white" stop-opacity="0.74"/>
<stop offset="0.666667" stop-color="#C9E0FF"/>
</linearGradient>
<clipPath id="clip0_627_674">
<rect width="300" height="267.07" fill="white"/>
</clipPath>
</defs>
</svg>
