<svg width="300" height="268" viewBox="0 0 300 268" fill="none" xmlns="http://www.w3.org/2000/svg">
<g clip-path="url(#clip0_629_930)">
<path d="M40 21C40 9.9543 48.9543 1 60 1H98.8843C107.59 1 115.245 6.70425 118.254 14.8733C145.115 87.8102 185.186 110.437 230.874 101.686C245.054 98.9698 260 108.544 260 122.983V248C260 259.046 251.046 268 240 268H60C48.9543 268 40 259.046 40 248V21Z" fill="url(#paint0_linear_629_930)"/>
<path d="M56.2642 207V192.455H66.0653V194.99H59.3395V198.456H65.5611V200.991H59.3395V204.464H66.0938V207H56.2642ZM75.2504 198.527V200.928H68.6168V198.527H75.2504ZM90.7191 197.547H87.6083C87.5515 197.144 87.4355 196.787 87.2603 196.474C87.0851 196.157 86.8602 195.887 86.5856 195.665C86.311 195.442 85.9937 195.272 85.6339 195.153C85.2788 195.035 84.8929 194.976 84.4762 194.976C83.7234 194.976 83.0676 195.163 82.5089 195.537C81.9502 195.906 81.5169 196.446 81.2092 197.156C80.9014 197.862 80.7475 198.719 80.7475 199.727C80.7475 200.764 80.9014 201.635 81.2092 202.341C81.5217 203.046 81.9573 203.579 82.516 203.939C83.0747 204.299 83.721 204.479 84.4549 204.479C84.8668 204.479 85.248 204.424 85.5984 204.315C85.9535 204.206 86.2683 204.048 86.543 203.839C86.8176 203.626 87.0449 203.368 87.2248 203.065C87.4094 202.762 87.5373 202.417 87.6083 202.028L90.7191 202.043C90.6386 202.71 90.4374 203.354 90.1154 203.974C89.7982 204.59 89.3697 205.142 88.8299 205.629C88.2949 206.112 87.6557 206.496 86.9123 206.78C86.1737 207.059 85.3379 207.199 84.4052 207.199C83.1078 207.199 81.9478 206.905 80.9251 206.318C79.9071 205.731 79.1022 204.881 78.5103 203.768C77.9232 202.656 77.6296 201.309 77.6296 199.727C77.6296 198.141 77.9279 196.792 78.5245 195.679C79.1211 194.566 79.9308 193.719 80.9535 193.136C81.9762 192.549 83.1268 192.256 84.4052 192.256C85.248 192.256 86.0292 192.374 86.7489 192.611C87.4734 192.848 88.1149 193.193 88.6737 193.648C89.2324 194.098 89.6869 194.649 90.0373 195.303C90.3924 195.956 90.6197 196.704 90.7191 197.547ZM97.7965 207.213C96.6933 207.213 95.7392 206.979 94.9343 206.51C94.1341 206.036 93.5162 205.378 93.0806 204.536C92.645 203.688 92.4272 202.705 92.4272 201.588C92.4272 200.461 92.645 199.476 93.0806 198.634C93.5162 197.786 94.1341 197.128 94.9343 196.659C95.7392 196.186 96.6933 195.949 97.7965 195.949C98.8997 195.949 99.8514 196.186 100.652 196.659C101.457 197.128 102.077 197.786 102.512 198.634C102.948 199.476 103.166 200.461 103.166 201.588C103.166 202.705 102.948 203.688 102.512 204.536C102.077 205.378 101.457 206.036 100.652 206.51C99.8514 206.979 98.8997 207.213 97.7965 207.213ZM97.8107 204.869C98.3126 204.869 98.7317 204.727 99.0678 204.443C99.404 204.154 99.6573 203.761 99.8278 203.264C100.003 202.767 100.091 202.201 100.091 201.567C100.091 200.932 100.003 200.366 99.8278 199.869C99.6573 199.372 99.404 198.979 99.0678 198.69C98.7317 198.402 98.3126 198.257 97.8107 198.257C97.3041 198.257 96.878 198.402 96.5323 198.69C96.1914 198.979 95.9334 199.372 95.7582 199.869C95.5877 200.366 95.5025 200.932 95.5025 201.567C95.5025 202.201 95.5877 202.767 95.7582 203.264C95.9334 203.761 96.1914 204.154 96.5323 204.443C96.878 204.727 97.3041 204.869 97.8107 204.869ZM105.133 207V196.091H108.017V198.016H108.145C108.372 197.376 108.751 196.872 109.281 196.503C109.811 196.134 110.446 195.949 111.184 195.949C111.932 195.949 112.569 196.136 113.095 196.51C113.62 196.879 113.971 197.381 114.146 198.016H114.26C114.482 197.391 114.885 196.891 115.467 196.517C116.054 196.138 116.748 195.949 117.548 195.949C118.566 195.949 119.392 196.273 120.027 196.922C120.666 197.566 120.985 198.48 120.985 199.663V207H117.967V200.26C117.967 199.654 117.806 199.199 117.484 198.896C117.162 198.593 116.76 198.442 116.277 198.442C115.727 198.442 115.299 198.617 114.991 198.967C114.683 199.313 114.529 199.77 114.529 200.338V207H111.596V200.196C111.596 199.661 111.442 199.235 111.135 198.918C110.832 198.6 110.431 198.442 109.934 198.442C109.598 198.442 109.295 198.527 109.025 198.697C108.76 198.863 108.549 199.098 108.393 199.401C108.237 199.699 108.159 200.049 108.159 200.452V207H105.133ZM123.375 207V196.091H126.259V198.016H126.387C126.614 197.376 126.993 196.872 127.523 196.503C128.053 196.134 128.688 195.949 129.426 195.949C130.175 195.949 130.811 196.136 131.337 196.51C131.863 196.879 132.213 197.381 132.388 198.016H132.502C132.724 197.391 133.127 196.891 133.709 196.517C134.296 196.138 134.99 195.949 135.79 195.949C136.808 195.949 137.634 196.273 138.269 196.922C138.908 197.566 139.228 198.48 139.228 199.663V207H136.209V200.26C136.209 199.654 136.048 199.199 135.726 198.896C135.404 198.593 135.002 198.442 134.519 198.442C133.97 198.442 133.541 198.617 133.233 198.967C132.926 199.313 132.772 199.77 132.772 200.338V207H129.838V200.196C129.838 199.661 129.685 199.235 129.377 198.918C129.074 198.6 128.674 198.442 128.176 198.442C127.84 198.442 127.537 198.527 127.267 198.697C127.002 198.863 126.792 199.098 126.635 199.401C126.479 199.699 126.401 200.049 126.401 200.452V207H123.375ZM146.589 207.213C145.467 207.213 144.501 206.986 143.691 206.531C142.886 206.072 142.266 205.423 141.831 204.585C141.395 203.742 141.177 202.746 141.177 201.595C141.177 200.473 141.395 199.488 141.831 198.641C142.266 197.793 142.879 197.133 143.67 196.659C144.466 196.186 145.398 195.949 146.468 195.949C147.188 195.949 147.858 196.065 148.478 196.297C149.103 196.524 149.648 196.867 150.112 197.327C150.581 197.786 150.945 198.364 151.206 199.06C151.466 199.751 151.596 200.561 151.596 201.489V202.32H142.385V200.445H148.748C148.748 200.009 148.654 199.623 148.464 199.287C148.275 198.951 148.012 198.688 147.676 198.499C147.344 198.304 146.958 198.207 146.518 198.207C146.059 198.207 145.652 198.314 145.297 198.527C144.946 198.735 144.672 199.017 144.473 199.372C144.274 199.723 144.172 200.113 144.167 200.544V202.327C144.167 202.866 144.267 203.333 144.466 203.726C144.669 204.119 144.956 204.422 145.325 204.635C145.694 204.848 146.132 204.955 146.639 204.955C146.975 204.955 147.283 204.907 147.562 204.812C147.842 204.718 148.081 204.576 148.279 204.386C148.478 204.197 148.63 203.965 148.734 203.69L151.532 203.875C151.39 204.547 151.099 205.134 150.659 205.636C150.223 206.134 149.66 206.522 148.968 206.801C148.282 207.076 147.489 207.213 146.589 207.213ZM153.571 207V196.091H156.504V197.994H156.618C156.816 197.317 157.15 196.806 157.619 196.46C158.088 196.11 158.627 195.935 159.238 195.935C159.39 195.935 159.553 195.944 159.728 195.963C159.904 195.982 160.057 196.008 160.19 196.041V198.726C160.048 198.683 159.851 198.645 159.6 198.612C159.35 198.579 159.12 198.562 158.912 198.562C158.467 198.562 158.069 198.66 157.718 198.854C157.373 199.043 157.098 199.308 156.895 199.649C156.696 199.99 156.596 200.383 156.596 200.828V207H153.571ZM166.175 207.213C165.058 207.213 164.097 206.976 163.292 206.503C162.492 206.025 161.876 205.362 161.445 204.514C161.019 203.667 160.806 202.691 160.806 201.588C160.806 200.471 161.022 199.491 161.452 198.648C161.888 197.8 162.506 197.14 163.306 196.666C164.106 196.188 165.058 195.949 166.161 195.949C167.113 195.949 167.946 196.122 168.661 196.467C169.376 196.813 169.942 197.298 170.359 197.923C170.775 198.548 171.005 199.282 171.048 200.125H168.192C168.112 199.58 167.899 199.143 167.553 198.811C167.212 198.475 166.765 198.307 166.211 198.307C165.742 198.307 165.333 198.435 164.982 198.69C164.637 198.941 164.367 199.308 164.173 199.791C163.978 200.274 163.881 200.859 163.881 201.545C163.881 202.241 163.976 202.833 164.165 203.321C164.36 203.809 164.632 204.18 164.982 204.436C165.333 204.692 165.742 204.82 166.211 204.82C166.557 204.82 166.867 204.749 167.141 204.607C167.421 204.464 167.65 204.259 167.83 203.989C168.015 203.714 168.136 203.385 168.192 203.001H171.048C171 203.835 170.773 204.569 170.366 205.203C169.963 205.833 169.407 206.325 168.697 206.68C167.987 207.036 167.146 207.213 166.175 207.213ZM177.956 207.213C176.834 207.213 175.868 206.986 175.059 206.531C174.254 206.072 173.633 205.423 173.198 204.585C172.762 203.742 172.544 202.746 172.544 201.595C172.544 200.473 172.762 199.488 173.198 198.641C173.633 197.793 174.247 197.133 175.037 196.659C175.833 196.186 176.766 195.949 177.836 195.949C178.555 195.949 179.225 196.065 179.846 196.297C180.471 196.524 181.015 196.867 181.479 197.327C181.948 197.786 182.312 198.364 182.573 199.06C182.833 199.751 182.963 200.561 182.963 201.489V202.32H173.752V200.445H180.115C180.115 200.009 180.021 199.623 179.831 199.287C179.642 198.951 179.379 198.688 179.043 198.499C178.712 198.304 178.326 198.207 177.885 198.207C177.426 198.207 177.019 198.314 176.664 198.527C176.313 198.735 176.039 199.017 175.84 199.372C175.641 199.723 175.539 200.113 175.534 200.544V202.327C175.534 202.866 175.634 203.333 175.833 203.726C176.036 204.119 176.323 204.422 176.692 204.635C177.061 204.848 177.499 204.955 178.006 204.955C178.342 204.955 178.65 204.907 178.929 204.812C179.209 204.718 179.448 204.576 179.647 204.386C179.846 204.197 179.997 203.965 180.101 203.69L182.9 203.875C182.757 204.547 182.466 205.134 182.026 205.636C181.59 206.134 181.027 206.522 180.336 206.801C179.649 207.076 178.856 207.213 177.956 207.213ZM188.226 205.011L188.148 205.793C188.087 206.418 187.968 207.04 187.793 207.661C187.623 208.286 187.443 208.851 187.253 209.358C187.069 209.865 186.919 210.262 186.806 210.551H184.846C184.917 210.272 185.014 209.881 185.137 209.379C185.26 208.882 185.376 208.323 185.485 207.703C185.594 207.083 185.662 206.451 185.691 205.807L185.726 205.011H188.226ZM198.07 192.455V207H194.995V192.455H198.07ZM213.967 199.727C213.967 201.313 213.666 202.663 213.065 203.776C212.468 204.888 211.654 205.738 210.621 206.325C209.594 206.908 208.439 207.199 207.156 207.199C205.863 207.199 204.703 206.905 203.675 206.318C202.648 205.731 201.836 204.881 201.239 203.768C200.643 202.656 200.344 201.309 200.344 199.727C200.344 198.141 200.643 196.792 201.239 195.679C201.836 194.566 202.648 193.719 203.675 193.136C204.703 192.549 205.863 192.256 207.156 192.256C208.439 192.256 209.594 192.549 210.621 193.136C211.654 193.719 212.468 194.566 213.065 195.679C213.666 196.792 213.967 198.141 213.967 199.727ZM210.849 199.727C210.849 198.7 210.695 197.833 210.387 197.128C210.084 196.422 209.656 195.887 209.102 195.523C208.548 195.158 207.899 194.976 207.156 194.976C206.412 194.976 205.763 195.158 205.21 195.523C204.656 195.887 204.225 196.422 203.917 197.128C203.614 197.833 203.462 198.7 203.462 199.727C203.462 200.755 203.614 201.621 203.917 202.327C204.225 203.032 204.656 203.567 205.21 203.932C205.763 204.296 206.412 204.479 207.156 204.479C207.899 204.479 208.548 204.296 209.102 203.932C209.656 203.567 210.084 203.032 210.387 202.327C210.695 201.621 210.849 200.755 210.849 199.727ZM215.027 194.99V192.455H226.973V194.99H222.52V207H219.48V194.99H215.027ZM231.488 205.011L231.41 205.793C231.348 206.418 231.23 207.04 231.055 207.661C230.884 208.286 230.704 208.851 230.515 209.358C230.33 209.865 230.181 210.262 230.067 210.551H228.107C228.178 210.272 228.275 209.881 228.398 209.379C228.522 208.882 228.638 208.323 228.746 207.703C228.855 207.083 228.924 206.451 228.952 205.807L228.988 205.011H231.488ZM56.2642 231V216.455H62.0028C63.1061 216.455 64.0459 216.665 64.8224 217.087C65.599 217.503 66.1908 218.083 66.598 218.827C67.0099 219.565 67.2159 220.418 67.2159 221.384C67.2159 222.349 67.0076 223.202 66.5909 223.94C66.1742 224.679 65.5705 225.254 64.7798 225.666C63.9938 226.078 63.0421 226.284 61.9247 226.284H58.267V223.82H61.4276C62.0194 223.82 62.5071 223.718 62.8906 223.514C63.2789 223.306 63.5677 223.019 63.7571 222.655C63.9512 222.286 64.0483 221.862 64.0483 221.384C64.0483 220.901 63.9512 220.479 63.7571 220.119C63.5677 219.755 63.2789 219.473 62.8906 219.274C62.5024 219.071 62.0099 218.969 61.4134 218.969H59.3395V231H56.2642ZM73.9098 231.213C72.8066 231.213 71.8525 230.979 71.0476 230.51C70.2474 230.036 69.6295 229.378 69.1939 228.536C68.7583 227.688 68.5405 226.705 68.5405 225.588C68.5405 224.461 68.7583 223.476 69.1939 222.634C69.6295 221.786 70.2474 221.128 71.0476 220.659C71.8525 220.186 72.8066 219.949 73.9098 219.949C75.013 219.949 75.9647 220.186 76.7649 220.659C77.5698 221.128 78.1901 221.786 78.6257 222.634C79.0613 223.476 79.2791 224.461 79.2791 225.588C79.2791 226.705 79.0613 227.688 78.6257 228.536C78.1901 229.378 77.5698 230.036 76.7649 230.51C75.9647 230.979 75.013 231.213 73.9098 231.213ZM73.924 228.869C74.4259 228.869 74.8449 228.727 75.1811 228.443C75.5173 228.154 75.7706 227.761 75.9411 227.264C76.1162 226.767 76.2038 226.201 76.2038 225.567C76.2038 224.932 76.1162 224.366 75.9411 223.869C75.7706 223.372 75.5173 222.979 75.1811 222.69C74.8449 222.402 74.4259 222.257 73.924 222.257C73.4174 222.257 72.9912 222.402 72.6456 222.69C72.3047 222.979 72.0466 223.372 71.8714 223.869C71.701 224.366 71.6158 224.932 71.6158 225.567C71.6158 226.201 71.701 226.767 71.8714 227.264C72.0466 227.761 72.3047 228.154 72.6456 228.443C72.9912 228.727 73.4174 228.869 73.924 228.869ZM81.2464 231V220.091H84.272V231H81.2464ZM82.7663 218.685C82.3165 218.685 81.9306 218.536 81.6087 218.237C81.2914 217.934 81.1328 217.572 81.1328 217.151C81.1328 216.734 81.2914 216.376 81.6087 216.078C81.9306 215.775 82.3165 215.624 82.7663 215.624C83.2161 215.624 83.5997 215.775 83.9169 216.078C84.2389 216.376 84.3999 216.734 84.3999 217.151C84.3999 217.572 84.2389 217.934 83.9169 218.237C83.5997 218.536 83.2161 218.685 82.7663 218.685ZM89.7212 224.693V231H86.6957V220.091H89.5792V222.016H89.707C89.9485 221.381 90.3533 220.879 90.9215 220.51C91.4897 220.136 92.1786 219.949 92.9883 219.949C93.7459 219.949 94.4064 220.115 94.9698 220.446C95.5333 220.777 95.9712 221.251 96.2837 221.866C96.5962 222.477 96.7525 223.206 96.7525 224.054V231H93.7269V224.594C93.7317 223.926 93.5612 223.405 93.2156 223.031C92.8699 222.652 92.3941 222.463 91.788 222.463C91.3808 222.463 91.021 222.551 90.7085 222.726C90.4007 222.901 90.1592 223.157 89.984 223.493C89.8136 223.824 89.726 224.224 89.7212 224.693ZM104.94 220.091V222.364H98.37V220.091H104.94ZM99.8615 217.477H102.887V227.648C102.887 227.927 102.93 228.145 103.015 228.301C103.1 228.453 103.219 228.559 103.37 228.621C103.526 228.682 103.706 228.713 103.91 228.713C104.052 228.713 104.194 228.701 104.336 228.678C104.478 228.649 104.587 228.628 104.663 228.614L105.138 230.865C104.987 230.912 104.774 230.967 104.499 231.028C104.225 231.095 103.891 231.135 103.498 231.149C102.769 231.178 102.129 231.08 101.58 230.858C101.036 230.635 100.612 230.29 100.309 229.821C100.006 229.352 99.8568 228.76 99.8615 228.045V217.477ZM113.375 223.827V226.227H106.742V223.827H113.375ZM120.882 231.213C119.779 231.213 118.825 230.979 118.02 230.51C117.22 230.036 116.602 229.378 116.167 228.536C115.731 227.688 115.513 226.705 115.513 225.588C115.513 224.461 115.731 223.476 116.167 222.634C116.602 221.786 117.22 221.128 118.02 220.659C118.825 220.186 119.779 219.949 120.882 219.949C121.986 219.949 122.937 220.186 123.738 220.659C124.542 221.128 125.163 221.786 125.598 222.634C126.034 223.476 126.252 224.461 126.252 225.588C126.252 226.705 126.034 227.688 125.598 228.536C125.163 229.378 124.542 230.036 123.738 230.51C122.937 230.979 121.986 231.213 120.882 231.213ZM120.897 228.869C121.399 228.869 121.818 228.727 122.154 228.443C122.49 228.154 122.743 227.761 122.914 227.264C123.089 226.767 123.176 226.201 123.176 225.567C123.176 224.932 123.089 224.366 122.914 223.869C122.743 223.372 122.49 222.979 122.154 222.69C121.818 222.402 121.399 222.257 120.897 222.257C120.39 222.257 119.964 222.402 119.618 222.69C119.277 222.979 119.019 223.372 118.844 223.869C118.674 224.366 118.588 224.932 118.588 225.567C118.588 226.201 118.674 226.767 118.844 227.264C119.019 227.761 119.277 228.154 119.618 228.443C119.964 228.727 120.39 228.869 120.897 228.869ZM134.086 220.091V222.364H127.353V220.091H134.086ZM128.894 231V219.303C128.894 218.512 129.048 217.856 129.355 217.335C129.668 216.814 130.094 216.424 130.634 216.163C131.174 215.903 131.787 215.773 132.473 215.773C132.937 215.773 133.361 215.808 133.745 215.879C134.133 215.95 134.422 216.014 134.611 216.071L134.071 218.344C133.953 218.306 133.806 218.27 133.631 218.237C133.461 218.204 133.285 218.188 133.105 218.188C132.66 218.188 132.35 218.292 132.175 218.5C132 218.704 131.912 218.99 131.912 219.359V231H128.894ZM142.34 223.827V226.227H135.707V223.827H142.34ZM152.866 220.638C152.809 220.065 152.565 219.62 152.134 219.303C151.703 218.985 151.119 218.827 150.38 218.827C149.878 218.827 149.454 218.898 149.109 219.04C148.763 219.177 148.498 219.369 148.313 219.615C148.133 219.861 148.043 220.141 148.043 220.453C148.034 220.714 148.088 220.941 148.207 221.135C148.33 221.329 148.498 221.497 148.711 221.639C148.924 221.777 149.17 221.897 149.45 222.001C149.729 222.101 150.027 222.186 150.344 222.257L151.651 222.57C152.286 222.712 152.868 222.901 153.398 223.138C153.929 223.375 154.388 223.666 154.776 224.011C155.165 224.357 155.465 224.764 155.678 225.233C155.896 225.702 156.007 226.239 156.012 226.845C156.007 227.735 155.78 228.507 155.33 229.161C154.885 229.809 154.241 230.313 153.398 230.673C152.56 231.028 151.549 231.206 150.366 231.206C149.192 231.206 148.169 231.026 147.298 230.666C146.431 230.306 145.754 229.774 145.266 229.068C144.783 228.358 144.53 227.48 144.506 226.433H147.482C147.515 226.921 147.655 227.328 147.901 227.655C148.152 227.977 148.486 228.221 148.903 228.386C149.324 228.547 149.8 228.628 150.33 228.628C150.851 228.628 151.303 228.552 151.687 228.401C152.075 228.249 152.376 228.038 152.589 227.768C152.802 227.499 152.908 227.188 152.908 226.838C152.908 226.511 152.811 226.237 152.617 226.014C152.428 225.792 152.148 225.602 151.779 225.446C151.415 225.29 150.967 225.148 150.437 225.02L148.853 224.622C147.627 224.324 146.658 223.857 145.948 223.223C145.238 222.589 144.885 221.734 144.89 220.659C144.885 219.778 145.12 219.009 145.593 218.351C146.071 217.693 146.727 217.179 147.56 216.81C148.394 216.44 149.341 216.256 150.401 216.256C151.481 216.256 152.423 216.44 153.228 216.81C154.038 217.179 154.667 217.693 155.117 218.351C155.567 219.009 155.799 219.771 155.813 220.638H152.866ZM161.135 231.206C160.439 231.206 159.818 231.085 159.274 230.844C158.729 230.598 158.298 230.235 157.981 229.757C157.669 229.274 157.512 228.673 157.512 227.953C157.512 227.347 157.624 226.838 157.846 226.426C158.069 226.014 158.372 225.683 158.755 225.432C159.139 225.181 159.574 224.991 160.062 224.864C160.555 224.736 161.071 224.646 161.61 224.594C162.245 224.527 162.756 224.466 163.145 224.409C163.533 224.348 163.815 224.258 163.99 224.139C164.165 224.021 164.252 223.846 164.252 223.614V223.571C164.252 223.121 164.11 222.773 163.826 222.527C163.547 222.281 163.149 222.158 162.633 222.158C162.089 222.158 161.655 222.278 161.333 222.52C161.011 222.757 160.798 223.055 160.694 223.415L157.896 223.188C158.038 222.525 158.317 221.952 158.734 221.469C159.151 220.981 159.688 220.607 160.346 220.347C161.009 220.081 161.776 219.949 162.647 219.949C163.253 219.949 163.833 220.02 164.387 220.162C164.946 220.304 165.441 220.524 165.872 220.822C166.307 221.121 166.651 221.504 166.902 221.973C167.153 222.437 167.278 222.993 167.278 223.642V231H164.409V229.487H164.324C164.148 229.828 163.914 230.129 163.62 230.389C163.327 230.645 162.974 230.846 162.562 230.993C162.15 231.135 161.674 231.206 161.135 231.206ZM162.001 229.118C162.446 229.118 162.839 229.03 163.18 228.855C163.521 228.675 163.788 228.434 163.983 228.131C164.177 227.828 164.274 227.484 164.274 227.101V225.943C164.179 226.005 164.049 226.062 163.883 226.114C163.722 226.161 163.54 226.206 163.336 226.249C163.133 226.286 162.929 226.322 162.725 226.355C162.522 226.384 162.337 226.41 162.172 226.433C161.816 226.485 161.506 226.568 161.241 226.682C160.976 226.795 160.77 226.949 160.623 227.143C160.476 227.333 160.403 227.57 160.403 227.854C160.403 228.266 160.552 228.58 160.85 228.798C161.154 229.011 161.537 229.118 162.001 229.118ZM172.651 216.455V231H169.625V216.455H172.651ZM180.046 231.213C178.924 231.213 177.958 230.986 177.148 230.531C176.344 230.072 175.723 229.423 175.288 228.585C174.852 227.742 174.634 226.746 174.634 225.595C174.634 224.473 174.852 223.488 175.288 222.641C175.723 221.793 176.336 221.133 177.127 220.659C177.923 220.186 178.855 219.949 179.925 219.949C180.645 219.949 181.315 220.065 181.935 220.297C182.56 220.524 183.105 220.867 183.569 221.327C184.038 221.786 184.402 222.364 184.663 223.06C184.923 223.751 185.053 224.561 185.053 225.489V226.32H175.842V224.445H182.205C182.205 224.009 182.111 223.623 181.921 223.287C181.732 222.951 181.469 222.688 181.133 222.499C180.801 222.304 180.415 222.207 179.975 222.207C179.516 222.207 179.109 222.314 178.754 222.527C178.403 222.735 178.129 223.017 177.93 223.372C177.731 223.723 177.629 224.113 177.624 224.544V226.327C177.624 226.866 177.724 227.333 177.923 227.726C178.126 228.119 178.413 228.422 178.782 228.635C179.151 228.848 179.589 228.955 180.096 228.955C180.432 228.955 180.74 228.907 181.019 228.812C181.299 228.718 181.538 228.576 181.737 228.386C181.935 228.197 182.087 227.965 182.191 227.69L184.989 227.875C184.847 228.547 184.556 229.134 184.116 229.636C183.68 230.134 183.117 230.522 182.425 230.801C181.739 231.076 180.946 231.213 180.046 231.213Z" fill="white"/>
<g filter="url(#filter0_d_629_930)">
<path d="M107.645 19C107.645 18.4477 108.093 18 108.645 18H156C156.552 18 157 18.4477 157 19V109.083C157 109.636 156.552 110.083 156 110.083H108.645C108.093 110.083 107.645 109.636 107.645 109.083V19Z" fill="url(#paint1_linear_629_930)"/>
<path d="M109.145 108.583V19.5H155.5V108.583H109.145Z" stroke="#8087AD" stroke-width="3"/>
</g>
<path d="M154.029 21.1406H123.684C129.894 36.4969 136.368 41.9439 154.029 45.2079V21.1406Z" fill="#96A9FF" fill-opacity="0.26"/>
<rect x="130.034" y="21.5811" width="8.70972" height="0.967747" rx="0.483874" fill="white"/>
<g filter="url(#filter1_d_629_930)">
<rect x="97" y="30.5811" width="46.4519" height="13.5485" rx="2" fill="#3E4D99"/>
<rect x="97.1" y="30.6811" width="46.2519" height="13.3485" rx="1.9" stroke="white" stroke-width="0.2"/>
</g>
<rect x="111.808" y="61.3047" width="9.51477" height="10.1226" rx="0.5" fill="#495AB4"/>
<rect x="125.783" y="62.293" width="20.2189" height="1.30615" rx="0.5" fill="white"/>
<rect x="125.783" y="65.8721" width="24.1937" height="1.30615" rx="0.5" fill="white"/>
<rect x="125.783" y="69.4512" width="24.1937" height="1.30615" rx="0.5" fill="white"/>
<rect x="113.202" y="33.376" width="27.0969" height="1.1613" rx="0.5" fill="white"/>
<rect x="113.202" y="36.6338" width="27.0969" height="1.1613" rx="0.5" fill="white"/>
<rect x="113.202" y="39.8975" width="27.0969" height="1.1613" rx="0.5" fill="white"/>
<circle cx="104.433" cy="37.5507" r="3.87099" fill="#C7D1FF"/>
<circle cx="116.355" cy="66.3857" r="2.90324" fill="#C7D1FF"/>
<g filter="url(#filter2_d_629_930)">
<mask id="path-18-inside-1_629_930" fill="white">
<rect x="144.113" y="68.3105" width="102.094" height="70.3688" rx="3"/>
</mask>
<rect x="144.113" y="68.3105" width="102.094" height="70.3688" rx="3" stroke="#8087AD" stroke-width="10" shape-rendering="crispEdges" mask="url(#path-18-inside-1_629_930)"/>
</g>
<g filter="url(#filter3_d_629_930)">
<path d="M139 133.526H251C251 137.373 247.882 140.491 244.035 140.491H145.965C142.118 140.491 139 137.373 139 133.526Z" fill="#8087AD"/>
</g>
<rect x="186.941" y="135.057" width="15.1646" height="1.08319" rx="0.541595" fill="white"/>
<rect x="148.744" y="73.7324" width="92.9073" height="59.7863" fill="url(#paint2_linear_629_930)"/>
<rect x="150.741" y="117.224" width="53.2839" height="11.8487" rx="1" fill="#495AB4"/>
<g filter="url(#filter4_d_629_930)">
<rect x="207.923" y="56" width="30.7692" height="43.0769" rx="2" fill="#3E4D99"/>
<rect x="208.023" y="56.1" width="30.5692" height="42.8769" rx="1.9" stroke="white" stroke-width="0.2"/>
</g>
<rect x="210.385" y="78.1602" width="25.8462" height="1.23077" rx="0.615385" fill="#C7D1D9"/>
<rect x="210.385" y="81.8418" width="25.8462" height="1.23077" rx="0.615385" fill="#C7D1D9"/>
<rect x="210.385" y="85.5371" width="25.8462" height="1.23077" rx="0.615385" fill="#C7D1D9"/>
<rect x="161.514" y="90.4238" width="38.7447" height="1.23077" rx="0.615385" fill="white"/>
<rect x="152.9" y="119.848" width="38.7447" height="1.84615" rx="0.923077" fill="#C7D1D9"/>
<rect x="161.515" y="92.8486" width="38.1539" height="1.23077" rx="0.615385" fill="white"/>
<rect x="161.514" y="95.3027" width="38.1539" height="1.23077" rx="0.615385" fill="white"/>
<rect x="152.9" y="124.727" width="28.9187" height="1.84615" rx="0.923077" fill="#C7D1D9"/>
<ellipse cx="155.031" cy="93.4372" rx="3.10618" ry="3.16569" fill="#C7D1FF"/>
<ellipse cx="198.106" cy="122.772" rx="3.10618" ry="3.16569" fill="#C7D1FF"/>
<rect x="218.999" y="63.3916" width="9.84616" height="9.84616" rx="0.5" fill="#C7D1FF"/>
<path d="M241.362 103.662C221.864 105.828 214.823 116.119 212.115 132.908H241.362V103.662Z" fill="#A0AEF4" fill-opacity="0.4"/>
</g>
<defs>
<filter id="filter0_d_629_930" x="107.645" y="18" width="50.3552" height="93.083" filterUnits="userSpaceOnUse" color-interpolation-filters="sRGB">
<feFlood flood-opacity="0" result="BackgroundImageFix"/>
<feColorMatrix in="SourceAlpha" type="matrix" values="0 0 0 0 0 0 0 0 0 0 0 0 0 0 0 0 0 0 127 0" result="hardAlpha"/>
<feOffset dx="1" dy="1"/>
<feComposite in2="hardAlpha" operator="out"/>
<feColorMatrix type="matrix" values="0 0 0 0 0.720729 0 0 0 0 0.912744 0 0 0 0 0.925 0 0 0 1 0"/>
<feBlend mode="normal" in2="BackgroundImageFix" result="effect1_dropShadow_629_930"/>
<feBlend mode="normal" in="SourceGraphic" in2="effect1_dropShadow_629_930" result="shape"/>
</filter>
<filter id="filter1_d_629_930" x="96" y="30.5811" width="47.4519" height="14.5488" filterUnits="userSpaceOnUse" color-interpolation-filters="sRGB">
<feFlood flood-opacity="0" result="BackgroundImageFix"/>
<feColorMatrix in="SourceAlpha" type="matrix" values="0 0 0 0 0 0 0 0 0 0 0 0 0 0 0 0 0 0 127 0" result="hardAlpha"/>
<feOffset dx="-1" dy="1"/>
<feComposite in2="hardAlpha" operator="out"/>
<feColorMatrix type="matrix" values="0 0 0 0 0.34902 0 0 0 0 0.427451 0 0 0 0 0.815686 0 0 0 1 0"/>
<feBlend mode="normal" in2="BackgroundImageFix" result="effect1_dropShadow_629_930"/>
<feBlend mode="normal" in="SourceGraphic" in2="effect1_dropShadow_629_930" result="shape"/>
</filter>
<filter id="filter2_d_629_930" x="144.113" y="68.3105" width="104.094" height="71.3691" filterUnits="userSpaceOnUse" color-interpolation-filters="sRGB">
<feFlood flood-opacity="0" result="BackgroundImageFix"/>
<feColorMatrix in="SourceAlpha" type="matrix" values="0 0 0 0 0 0 0 0 0 0 0 0 0 0 0 0 0 0 127 0" result="hardAlpha"/>
<feOffset dx="2" dy="1"/>
<feComposite in2="hardAlpha" operator="out"/>
<feColorMatrix type="matrix" values="0 0 0 0 0.717647 0 0 0 0 0.909804 0 0 0 0 0.921569 0 0 0 1 0"/>
<feBlend mode="normal" in2="BackgroundImageFix" result="effect1_dropShadow_629_930"/>
<feBlend mode="normal" in="SourceGraphic" in2="effect1_dropShadow_629_930" result="shape"/>
</filter>
<filter id="filter3_d_629_930" x="139" y="133.526" width="112" height="7.96484" filterUnits="userSpaceOnUse" color-interpolation-filters="sRGB">
<feFlood flood-opacity="0" result="BackgroundImageFix"/>
<feColorMatrix in="SourceAlpha" type="matrix" values="0 0 0 0 0 0 0 0 0 0 0 0 0 0 0 0 0 0 127 0" result="hardAlpha"/>
<feOffset dy="1"/>
<feComposite in2="hardAlpha" operator="out"/>
<feColorMatrix type="matrix" values="0 0 0 0 0.721569 0 0 0 0 0.913725 0 0 0 0 0.92549 0 0 0 1 0"/>
<feBlend mode="normal" in2="BackgroundImageFix" result="effect1_dropShadow_629_930"/>
<feBlend mode="normal" in="SourceGraphic" in2="effect1_dropShadow_629_930" result="shape"/>
</filter>
<filter id="filter4_d_629_930" x="207.923" y="56" width="31.7693" height="44.0771" filterUnits="userSpaceOnUse" color-interpolation-filters="sRGB">
<feFlood flood-opacity="0" result="BackgroundImageFix"/>
<feColorMatrix in="SourceAlpha" type="matrix" values="0 0 0 0 0 0 0 0 0 0 0 0 0 0 0 0 0 0 127 0" result="hardAlpha"/>
<feOffset dx="1" dy="1"/>
<feComposite in2="hardAlpha" operator="out"/>
<feColorMatrix type="matrix" values="0 0 0 0 0.350486 0 0 0 0 0.427329 0 0 0 0 0.816667 0 0 0 1 0"/>
<feBlend mode="normal" in2="BackgroundImageFix" result="effect1_dropShadow_629_930"/>
<feBlend mode="normal" in="SourceGraphic" in2="effect1_dropShadow_629_930" result="shape"/>
</filter>
<linearGradient id="paint0_linear_629_930" x1="253.5" y1="268" x2="40" y2="268" gradientUnits="userSpaceOnUse">
<stop offset="0.09375" stop-color="#4859B3"/>
<stop offset="0.814777" stop-color="#ABB9F6"/>
</linearGradient>
<linearGradient id="paint1_linear_629_930" x1="132.323" y1="18" x2="132.323" y2="110.083" gradientUnits="userSpaceOnUse">
<stop offset="0.183469" stop-color="#495AB4"/>
<stop offset="1" stop-color="#ACBAF7"/>
</linearGradient>
<linearGradient id="paint2_linear_629_930" x1="195.198" y1="73.7324" x2="195.198" y2="133.519" gradientUnits="userSpaceOnUse">
<stop offset="0.416392" stop-color="#495AB4"/>
<stop offset="0.96875" stop-color="#ABB9F6"/>
<stop offset="1" stop-color="#F2F2F2" stop-opacity="0"/>
</linearGradient>
<clipPath id="clip0_629_930">
<rect width="300" height="267.07" fill="white"/>
</clipPath>
</defs>
</svg>
